{
  "accessors": [
    {
      "bufferView": 0,
      "componentType": 5125,
      "count": 2652,
      "type": "SCALAR"
    },
    {
      "bufferView": 1,
      "componentType": 5126,
      "count": 754,
      "max": [
        0.12040393318940268,
        0.02361533143710759,
        0.023999999393709018
      ],
      "min": [
        0.07746923632388603,
        0.011391771267527467,
        -0.023999999393709018
      ],
      "type": "VEC3"
    },
    {
      "bufferView": 2,
      "componentType": 5126,
      "count": 754,
      "max": [
        0.9999550835929,
        0.9995256523327706,
        1.0
      ],
      "min": [
        -0.9966190447269541,
        -0.9999999999864657,
        -1.0
      ],
      "type": "VEC3"
    },
    {
      "bufferView": 3,
      "componentType": 5126,
      "count": 754,
      "max": [
        1.0,
        0.5621565820253634
      ],
      "min": [
        0.0,
        0.0
      ],
      "type": "VEC2"
    },
    {
      "bufferView": 4,
      "componentType": 5125,
      "count": 2706,
      "type": "SCALAR"
    },
    {
      "bufferView": 5,
      "componentType": 5126,
      "count": 773,
      "max": [
        -0.010038574437393866,
        0.02222781617826361,
        0.023999999393709018
      ],
      "min": [
        -0.06557218735576523,
        -0.023615331437107562,
        -0.023999999393709018
      ],
      "type": "VEC3"
    },
    {
      "bufferView": 6,
      "componentType": 5126,
      "count": 773,
      "max": [
        0.9990008476255711,
        0.9999999997792718,
        1.0
      ],
      "min": [
        -0.9998752502936831,
        -0.9919988552142748,
        -1.0
      ],
      "type": "VEC3"
    },
    {
      "bufferView": 7,
      "componentType": 5126,
      "count": 773,
      "max": [
        0.898348946414613,
        1.0
      ],
      "min": [
        0.0,
        0.0
      ],
      "type": "VEC2"
    },
    {
      "bufferView": 8,
      "componentType": 5125,
      "count": 1176,
      "type": "SCALAR"
    },
    {
      "bufferView": 9,
      "componentType": 5126,
      "count": 340,
      "max": [
        0.010227074937256886,
        0.022158104920735583,
        0.023999999393708976
      ],
      "min": [
        -0.010223241910952169,
        -0.023431698895280628,
        -0.023999999393709018
      ],
      "type": "VEC3"
    },
    {
      "bufferView": 10,
      "componentType": 5126,
      "count": 340,
      "max": [
        0.9999081600252696,
        0.9999981630242277,
        1.0
      ],
      "min": [
        -0.999261696184612,
        -0.9999999983213363,
        -1.0
      ],
      "type": "VEC3"
    },
    {
      "bufferView": 11,
      "componentType": 5126,
      "count": 340,
      "max": [
        1.0,
        0.991684315267426
      ],
      "min": [
        0.0,
        0.0
      ],
      "type": "VEC2"
    },
    {
      "bufferView": 12,
      "componentType": 5125,
      "count": 4470,
      "type": "SCALAR"
    },
    {
      "bufferView": 13,
      "componentType": 5126,
      "count": 1265,
      "max": [
        0.11746059274712412,
        0.003585127610217703,
        0.02399999939370899
      ],
      "min": [
        0.07329662900715,
        -0.023497824372204795,
        -0.023999999393709018
      ],
      "type": "VEC3"
    },
    {
      "bufferView": 14,
      "componentType": 5126,
      "count": 1265,
      "max": [
        0.9999999228523148,
        0.9999999999919728,
        1.0
      ],
      "min": [
        -0.9990772366801838,
        -0.9999999999868752,
        -1.0
      ],
      "type": "VEC3"
    },
    {
      "bufferView": 15,
      "componentType": 5126,
      "count": 1265,
      "max": [
        0.9719081343105415,
        1.0
      ],
      "min": [
        0.0,
        0.0
      ],
      "type": "VEC2"
    },
    {
      "bufferView": 16,
      "componentType": 5125,
      "count": 4650,
      "type": "SCALAR"
    },
    {
      "bufferView": 17,
      "componentType": 5126,
      "count": 1323,
      "max": [
        0.16819953189569775,
        0.022177601699179414,
        0.02399999939370899
      ],
      "min": [
        0.12294208674538393,
        -0.023435191906891528,
        -0.023999999393709018
      ],
      "type": "VEC3"
    },
    {
      "bufferView": 18,
      "componentType": 5126,
      "count": 1323,
      "max": [
        0.9999913540442192,
        0.9999999999826301,
        1.0
      ],
      "min": [
        -0.9996492031636304,
        -1.0,
        -1.0
      ],
      "type": "VEC3"
    },
    {
      "bufferView": 19,
      "componentType": 5126,
      "count": 1323,
      "max": [
        0.9768892484299039,
        1.0
      ],
      "min": [
        0.0,
        0.0
      ],
      "type": "VEC2"
    },
    {
      "bufferView": 20,
      "componentType": 5125,
      "count": 2826,
      "type": "SCALAR"
    },
    {
      "bufferView": 21,
      "componentType": 5126,
      "count": 815,
      "max": [
        -0.07521078908430232,
        0.022579149821310207,
        0.02399999939370899
      ],
      "min": [
        -0.16819953189569775,
        -0.023446376610610664,
        -0.023999999393709018
      ],
      "type": "VEC3"
    },
    {
      "bufferView": 22,
      "componentType": 5126,
      "count": 815,
      "max": [
        0.9999603164424087,
        1.0,
        1.0
      ],
      "min": [
        -0.9996424933094552,
        -1.0,
        -1.0
      ],
      "type": "VEC3"
    },
    {
      "bufferView": 23,
      "componentType": 5126,
      "count": 815,
      "max": [
        0.9816439868978604,
        1.0
      ],
      "min": [
        0.0,
        0.0
      ],
      "type": "VEC2"
    },
    {
      "bufferView": 24,
      "componentType": 5125,
      "count": 6162,
      "type": "SCALAR"
    },
    {
      "bufferView": 25,
      "componentType": 5126,
      "count": 1733,
      "max": [
        0.07018869451259707,
        0.022165624451432442,
        0.02399999939370899
      ],
      "min": [
        0.014193627593851232,
        -0.02348141715050553,
        -0.023999999393709018
      ],
      "type": "VEC3"
    },
    {
      "bufferView": 26,
      "componentType": 5126,
      "count": 1733,
      "max": [
        0.9999970661251971,
        0.9999999947934839,
        1.0
      ],
      "min": [
        -0.9999677216207741,
        -0.9999999999209893,
        -1.0
      ],
      "type": "VEC3"
    },
    {
      "bufferView": 27,
      "componentType": 5126,
      "count": 1733,
      "max": [
        1.0,
        0.9203436609937298
      ],
      "min": [
        0.0,
        0.0
      ],
      "type": "VEC2"
    }
  ],
  "asset": {
    "generator": "Adobe Illustrator",
    "version": "2.0"
  },
  "bufferViews": [
    {
      "buffer": 0,
      "byteLength": 10608,
      "target": 34963
    },
    {
      "buffer": 0,
      "byteLength": 9048,
      "byteOffset": 10608,
      "target": 34962
    },
    {
      "buffer": 0,
      "byteLength": 9048,
      "byteOffset": 19656,
      "target": 34962
    },
    {
      "buffer": 0,
      "byteLength": 6032,
      "byteOffset": 28704,
      "target": 34962
    },
    {
      "buffer": 0,
      "byteLength": 10824,
      "byteOffset": 34736,
      "target": 34963
    },
    {
      "buffer": 0,
      "byteLength": 9276,
      "byteOffset": 45560,
      "target": 34962
    },
    {
      "buffer": 0,
      "byteLength": 9276,
      "byteOffset": 54836,
      "target": 34962
    },
    {
      "buffer": 0,
      "byteLength": 6184,
      "byteOffset": 64112,
      "target": 34962
    },
    {
      "buffer": 0,
      "byteLength": 4704,
      "byteOffset": 70296,
      "target": 34963
    },
    {
      "buffer": 0,
      "byteLength": 4080,
      "byteOffset": 75000,
      "target": 34962
    },
    {
      "buffer": 0,
      "byteLength": 4080,
      "byteOffset": 79080,
      "target": 34962
    },
    {
      "buffer": 0,
      "byteLength": 2720,
      "byteOffset": 83160,
      "target": 34962
    },
    {
      "buffer": 0,
      "byteLength": 17880,
      "byteOffset": 85880,
      "target": 34963
    },
    {
      "buffer": 0,
      "byteLength": 15180,
      "byteOffset": 103760,
      "target": 34962
    },
    {
      "buffer": 0,
      "byteLength": 15180,
      "byteOffset": 118940,
      "target": 34962
    },
    {
      "buffer": 0,
      "byteLength": 10120,
      "byteOffset": 134120,
      "target": 34962
    },
    {
      "buffer": 0,
      "byteLength": 18600,
      "byteOffset": 144240,
      "target": 34963
    },
    {
      "buffer": 0,
      "byteLength": 15876,
      "byteOffset": 162840,
      "target": 34962
    },
    {
      "buffer": 0,
      "byteLength": 15876,
      "byteOffset": 178716,
      "target": 34962
    },
    {
      "buffer": 0,
      "byteLength": 10584,
      "byteOffset": 194592,
      "target": 34962
    },
    {
      "buffer": 0,
      "byteLength": 11304,
      "byteOffset": 205176,
      "target": 34963
    },
    {
      "buffer": 0,
      "byteLength": 9780,
      "byteOffset": 216480,
      "target": 34962
    },
    {
      "buffer": 0,
      "byteLength": 9780,
      "byteOffset": 226260,
      "target": 34962
    },
    {
      "buffer": 0,
      "byteLength": 6520,
      "byteOffset": 236040,
      "target": 34962
    },
    {
      "buffer": 0,
      "byteLength": 24648,
      "byteOffset": 242560,
      "target": 34963
    },
    {
      "buffer": 0,
      "byteLength": 20796,
      "byteOffset": 267208,
      "target": 34962
    },
    {
      "buffer": 0,
      "byteLength": 20796,
      "byteOffset": 288004,
      "target": 34962
    },
    {
      "buffer": 0,
      "byteLength": 13864,
      "byteOffset": 308800,
      "target": 34962
    }
  ],
  "buffers": [
    {
      "byteLength": 322664,
      "uri": "data:application/octet-stream;base64,"
    }
  ],
  "materials": [
    {
      "doubleSided": true,
      "pbrMetallicRoughness": {
        "baseColorFactor": [
          0.9843749403953552,
          0.54296875,
          0.9453124403953552,
          1.0
        ],
        "metallicFactor": 0.0,
        "roughnessFactor": 0.4000000059604645
      }
    },
    {
      "doubleSided": true,
      "pbrMetallicRoughness": {
        "baseColorFactor": [
          0.9843749403953552,
          0.54296875,
          0.9453124403953552,
          1.0
        ],
        "metallicFactor": 0.0,
        "roughnessFactor": 0.4000000059604645
      }
    },
    {
      "doubleSided": true,
      "pbrMetallicRoughness": {
        "baseColorFactor": [
          0.9843749403953552,
          0.54296875,
          0.9453124403953552,
          1.0
        ],
        "metallicFactor": 0.0,
        "roughnessFactor": 0.4000000059604645
      }
    },
    {
      "doubleSided": true,
      "pbrMetallicRoughness": {
        "baseColorFactor": [
          0.9843749403953552,
          0.54296875,
          0.9453124403953552,
          1.0
        ],
        "metallicFactor": 0.0,
        "roughnessFactor": 0.4000000059604645
      }
    },
    {
      "doubleSided": true,
      "pbrMetallicRoughness": {
        "baseColorFactor": [
          0.9843749403953552,
          0.54296875,
          0.9453124403953552,
          1.0
        ],
        "metallicFactor": 0.0,
        "roughnessFactor": 0.4000000059604645
      }
    },
    {
      "doubleSided": true,
      "pbrMetallicRoughness": {
        "baseColorFactor": [
          0.9843749403953552,
          0.54296875,
          0.9453124403953552,
          1.0
        ],
        "metallicFactor": 0.0,
        "roughnessFactor": 0.4000000059604645
      }
    },
    {
      "doubleSided": true,
      "pbrMetallicRoughness": {
        "baseColorFactor": [
          0.9843749403953552,
          0.54296875,
          0.9453124403953552,
          1.0
        ],
        "metallicFactor": 0.0,
        "roughnessFactor": 0.4000000059604645
      }
    }
  ],
  "meshes": [
    {
      "primitives": [
        {
          "attributes": {
            "NORMAL": 2,
            "POSITION": 1,
            "TEXCOORD_0": 3
          },
          "indices": 0,
          "material": 0,
          "mode": 4
        }
      ]
    },
    {
      "primitives": [
        {
          "attributes": {
            "NORMAL": 6,
            "POSITION": 5,
            "TEXCOORD_0": 7
          },
          "indices": 4,
          "material": 1,
          "mode": 4
        }
      ]
    },
    {
      "primitives": [
        {
          "attributes": {
            "NORMAL": 10,
            "POSITION": 9,
            "TEXCOORD_0": 11
          },
          "indices": 8,
          "material": 2,
          "mode": 4
        }
      ]
    },
    {
      "primitives": [
        {
          "attributes": {
            "NORMAL": 14,
            "POSITION": 13,
            "TEXCOORD_0": 15
          },
          "indices": 12,
          "material": 3,
          "mode": 4
        }
      ]
    },
    {
      "primitives": [
        {
          "attributes": {
            "NORMAL": 18,
            "POSITION": 17,
            "TEXCOORD_0": 19
          },
          "indices": 16,
          "material": 4,
          "mode": 4
        }
      ]
    },
    {
      "primitives": [
        {
          "attributes": {
            "NORMAL": 22,
            "POSITION": 21,
            "TEXCOORD_0": 23
          },
          "indices": 20,
          "material": 5,
          "mode": 4
        }
      ]
    },
    {
      "primitives": [
        {
          "attributes": {
            "NORMAL": 26,
            "POSITION": 25,
            "TEXCOORD_0": 27
          },
          "indices": 24,
          "material": 6,
          "mode": 4
        }
      ]
    }
  ],
  "nodes": [
    {
      "mesh": 0
    },
    {
      "mesh": 1
    },
    {
      "mesh": 2
    },
    {
      "mesh": 3
    },
    {
      "mesh": 4
    },
    {
      "mesh": 5
    },
    {
      "mesh": 6
    }
  ],
  "scenes": [
    {
      "nodes": [
        0,
        1,
        2,
        3,
        4,
        5,
        6
      ]
    }
  ]
}
